# xmcd
#
# Track frame offsets:
#	150
#	18247
#	28445
#	50397
#	58207
#	73927
#	97687
#	113822
#	130095
#	165845
#	182250
#	196245
#	208545
#	215800
#	229835
#	246175
#
# Disc length: 3452 seconds
#
# Revision: 1
# Processed by: cddbd v1.5.2PL0 Copyright (c) Steve Scherf et al.
# Submitted via: EasyCDDAExtractor 10.0.3.1
#
DISCID=dc0d7a10
DTITLE=Willie Nelson - Famous Country Music Makers
DYEAR=1900
DGENRE=Ballad
TTITLE0=The Red Headed Stanger
TTITLE1=On The Road Again
TTITLE2=City Of New Orleans
TTITLE3=If You've Got The Money Honey I've Got The Time
TTITLE4=Whiskey River
TTITLE5='Till I Gain Control Again
TTITLE6=You Were Always On My Mind
TTITLE7=Stardust
TTITLE8=Medley: Funny How Time Slips Away - Crazy - Night Life
TTITLE9=Georgia On My Mind
TTITLE10=Blue Eyes Crying In The Rain
TTITLE11=Seven Spanish Angels
TTITLE12=Luckenbach Texas
TTITLE13=Good Hearted Woman
TTITLE14=Angel Flying Too Close To The Ground
TTITLE15=To All The Girls I've Loved Before
EXTD=
EXTT0=
EXTT1=
EXTT2=
EXTT3=
EXTT4=
EXTT5=
EXTT6=
EXTT7=
EXTT8=
EXTT9=
EXTT10=
EXTT11=
EXTT12=
EXTT13=
EXTT14=
EXTT15=
PLAYORDER=
